<?xml version="1.0" standalone="no"?>
<!DOCTYPE svg PUBLIC "-//W3C//DTD SVG 20010904//EN"
 "http://www.w3.org/TR/2001/REC-SVG-20010904/DTD/svg10.dtd">
<svg version="1.0" xmlns="http://www.w3.org/2000/svg"
 width="1280.000000pt" height="709.000000pt" viewBox="0 0 1280.000000 709.000000"
 preserveAspectRatio="xMidYMid meet">
<g transform="translate(0.000000,709.000000) scale(0.100000,-0.100000)"
fill="#000000" stroke="none">
<path d="M9870 7050 c-328 -86 -692 -249 -836 -375 -146 -128 -243 -295 -389
-670 -106 -273 -219 -503 -323 -660 -93 -141 -242 -317 -333 -395 -109 -94
-428 -411 -490 -488 -52 -64 -59 -79 -59 -117 l0 -43 -527 -466 c-290 -256
-535 -466 -544 -466 -10 0 -60 24 -111 54 -52 30 -602 284 -1223 564 -1950
880 -3142 1425 -3560 1627 -244 118 -344 158 -454 180 -129 27 -224 11 -289
-48 -44 -41 -33 -61 121 -213 125 -124 163 -156 317 -256 185 -122 422 -266
815 -495 256 -150 344 -197 495 -266 102 -47 2666 -1391 2688 -1409 7 -6 9
-15 5 -19 -8 -8 -635 -154 -1478 -344 -583 -132 -964 -226 -1437 -354 -811
-222 -1910 -544 -2048 -601 -94 -39 -159 -81 -189 -121 -21 -28 -22 -34 -10
-57 65 -121 452 -160 909 -91 74 11 365 65 645 119 1786 346 4695 885 4727
877 10 -3 295 -150 633 -328 543 -284 619 -327 650 -365 47 -57 139 -116 315
-204 240 -118 295 -170 472 -440 67 -102 117 -166 169 -215 70 -66 86 -76 319
-184 135 -63 283 -133 330 -156 100 -50 490 -213 705 -295 176 -67 395 -139
515 -169 424 -105 546 -125 848 -141 103 -5 231 -13 285 -16 99 -7 114 -5 292
37 95 23 225 83 310 143 266 191 366 518 233 769 -42 79 -170 209 -266 272
-236 152 -941 409 -1847 674 -704 205 -1320 381 -1400 399 -49 12 -207 39
-349 62 -142 22 -311 52 -375 66 -64 15 -138 30 -166 34 -40 6 -144 62 -505
270 -250 144 -459 267 -465 272 -28 27 466 429 805 654 152 102 213 134 251
134 38 0 102 27 152 62 17 13 40 28 49 33 9 6 168 125 353 265 470 356 479
363 702 498 197 120 445 241 568 278 96 28 188 23 362 -19 84 -21 191 -43 238
-49 168 -21 306 23 419 136 98 97 156 220 196 416 11 54 31 145 45 203 52 219
68 336 67 482 -1 166 -20 255 -82 383 -45 90 -134 214 -202 278 -152 146 -373
258 -588 298 -47 9 -107 21 -133 26 -87 18 -174 10 -327 -30z m287 -345 c420
-89 688 -401 635 -740 -15 -94 -56 -203 -107 -281 -88 -134 -278 -290 -434
-355 -143 -60 -309 -73 -437 -35 -62 19 -197 99 -260 155 -135 119 -230 294
-265 491 -17 99 -14 287 6 356 53 184 198 337 373 395 119 40 340 46 489 14z
m-791 -5100 c185 -18 282 -40 604 -135 129 -37 264 -76 300 -85 36 -9 126 -36
200 -60 74 -24 284 -89 466 -144 604 -182 791 -276 862 -429 66 -145 -23 -344
-194 -430 -105 -53 -154 -62 -324 -63 -311 0 -641 73 -1239 276 -471 160 -719
282 -921 452 -91 77 -145 145 -192 243 -36 73 -42 95 -46 166 -5 92 17 160 60
188 53 34 205 42 424 21z"/>
</g>
</svg>
